# xmcd
#
# Track frame offsets:
#	150
#	25690
#	46532
#	67498
#	89832
#	106507
#	125113
#	148816
#	171616
#
# Disc length: 2662 seconds
#
# Revision: 0
# Processed by: cddbd v1.5.2PL0 Copyright (c) Steve Scherf et al.
# Submitted via: dBpowerAMP V4.0
#
DISCID=850a6409
DTITLE=Kevin Crandall Band - Uncorked
DYEAR=2000
DGENRE=Blues
TTITLE0=Country Girl
TTITLE1=Ain't No Big Deal
TTITLE2=Fishtale Blues
TTITLE3=Off the Wall
TTITLE4=Conjured
TTITLE5=She Caught the Kady
TTITLE6=When it Rains it Pours
TTITLE7=Track0The Hucklebuck
TTITLE8=It All Went Down the Drain
EXTD=Kevin Crandall Band is local to the southeastern CT area
EXTT0=
EXTT1=
EXTT2=
EXTT3=
EXTT4=
EXTT5=
EXTT6=
EXTT7=
EXTT8=
PLAYORDER=
